<svg width="553" height="516" viewBox="0 0 553 516" fill="none" xmlns="http://www.w3.org/2000/svg">
<path d="M372.633 365.415H174.325C157.656 365.415 144.095 351.854 144.095 335.185V136.877C144.095 120.208 157.656 106.647 174.325 106.647H372.633C389.302 106.647 402.863 120.208 402.863 136.877V335.185C402.863 351.854 389.302 365.415 372.633 365.415V365.415ZM174.325 111.484C160.301 111.484 148.932 122.853 148.932 136.877V335.185C148.932 349.209 160.301 360.578 174.325 360.578H313.235C360.064 360.578 398.026 322.616 398.026 275.787V136.877C398.026 122.853 386.657 111.484 372.633 111.484H174.325V111.484Z" fill="#F2F2F2"/>
<path d="M195.704 132.106C186.319 132.106 178.683 139.741 178.683 149.127V175.769C178.683 185.155 186.319 192.79 195.704 192.79H222.346C231.732 192.79 239.367 185.155 239.367 175.769V149.127C239.367 139.741 231.732 132.106 222.346 132.106H195.704Z" fill="#F2F2F2"/>
<path d="M195.704 207.106C186.319 207.106 178.683 214.741 178.683 224.127V250.769C178.683 260.155 186.319 267.79 195.704 267.79H222.346C231.732 267.79 239.367 260.155 239.367 250.769V224.127C239.367 214.741 231.732 207.106 222.346 207.106H195.704V207.106Z" fill="#F2F2F2"/>
<path d="M195.704 282.106C186.319 282.106 178.683 289.741 178.683 299.127V325.769C178.683 335.155 186.319 342.79 195.704 342.79H222.346C231.732 342.79 239.367 335.155 239.367 325.769V299.127C239.367 289.741 231.732 282.106 222.346 282.106H195.704Z" fill="#F2F2F2"/>
<path d="M213.371 67.106C201.545 67.106 191.924 76.7267 191.924 88.5531V122.122C191.924 133.949 201.545 143.57 213.371 143.57H246.941C258.767 143.57 268.388 133.949 268.388 122.122V88.5531C268.388 76.7267 258.767 67.106 246.941 67.106H213.371V67.106Z" fill="#ED9B40"/>
<path d="M323.89 160.918C312.064 160.918 302.443 170.539 302.443 182.366V215.935C302.443 227.761 312.064 237.382 323.89 237.382H357.46C369.286 237.382 378.907 227.761 378.907 215.935V182.366C378.907 170.539 369.286 160.918 357.46 160.918H323.89Z" fill="#ED9B40"/>
<path d="M275.842 498.808L269.023 498.75L266.004 471.833L276.069 471.917L275.842 498.808Z" fill="#A0616A"/>
<path d="M253.998 509.652C253.983 511.331 255.336 512.712 257.021 512.728L270.58 512.841L272.954 508.029L273.826 512.865L278.942 512.912L277.65 495.663L275.87 495.545L268.61 495.045L266.267 494.888L266.226 499.768L255.334 507.156C254.505 507.719 254.006 508.651 253.998 509.652H253.998Z" fill="#2F2E41"/>
<path d="M310.54 498.808L303.72 498.75L300.702 471.833L310.767 471.917L310.54 498.808Z" fill="#A0616A"/>
<path d="M288.696 509.652C288.681 511.331 290.034 512.712 291.719 512.728L305.278 512.841L307.652 508.029L308.523 512.865L313.64 512.912L312.348 495.663L310.568 495.545L303.307 495.045L300.965 494.888L300.924 499.768L290.032 507.156C289.203 507.719 288.704 508.651 288.696 509.652V509.652Z" fill="#2F2E41"/>
<path d="M249.081 281.178L276.724 282.051L302.913 287.871C302.913 287.871 300.294 291.072 309.024 299.801C309.024 299.801 320.663 320.17 312.516 339.957L309.024 419.105C309.024 419.105 319.205 474.898 311.426 492.656L301.145 493.298L283.749 419.748L275.27 340.539L271.196 418.523C271.196 418.523 286.781 472.049 276.939 493.298L265.805 492.656L246.753 418.523C246.753 418.523 238.606 332.973 239.77 316.678C240.934 300.383 249.081 281.178 249.081 281.178H249.081Z" fill="#011638"/>
<path d="M341.914 156.113C338.135 157.091 335.865 160.948 336.843 164.727C337.292 166.458 338.348 167.867 339.721 168.798L339.72 168.807L339.184 181.792L349.121 186.391L349.914 166.409L349.845 166.411C350.707 164.876 351.004 163.022 350.528 161.183C349.55 157.404 345.693 155.134 341.914 156.113V156.113Z" fill="#A0616A"/>
<path d="M286.378 202.455C284.29 200.386 283.079 197.58 283.034 194.53C282.973 190.438 285.024 186.723 288.52 184.595C292.545 182.143 297.579 182.391 301.345 185.226L332.548 208.719L338.107 174.875L350.044 178.718L347.196 222.788C346.997 225.87 345.255 228.586 342.535 230.052C339.816 231.518 336.59 231.481 333.905 229.954L288.812 204.299C287.907 203.783 287.091 203.162 286.378 202.455V202.455Z" fill="#3F3D56"/>
<path d="M238.799 137.182C240.794 140.537 239.691 144.874 236.335 146.869C234.798 147.783 233.056 148.039 231.426 147.734L231.419 147.741L222.658 157.34L212.364 153.609L225.869 138.861L225.916 138.911C226.385 137.215 227.479 135.688 229.112 134.718C232.467 132.723 236.804 133.826 238.799 137.182V137.182Z" fill="#A0616A"/>
<path d="M242.583 208.787L192.498 195.258C189.516 194.452 187.2 192.207 186.301 189.252C185.402 186.296 186.077 183.141 188.105 180.812L217.11 147.51L228.293 153.186L208.413 181.134L247.112 186.419C251.782 187.057 255.531 190.425 256.664 195C257.648 198.973 256.489 203.055 253.565 205.918C251.385 208.053 248.55 209.192 245.611 209.192C244.607 209.192 243.59 209.059 242.583 208.787H242.583Z" fill="#3F3D56"/>
<path d="M313.989 292.822L243.951 296.035C242.027 293.114 242.548 288.721 245.242 283.221C255.413 262.454 247.689 223.167 242.492 202.709C241.034 196.97 244.948 191.264 250.841 190.674L257.444 190.014L263.549 171.38H284.927L293.797 181.513L308.848 190.656C306.109 218.877 294.435 258.727 311.066 278.712C314.703 283.082 315.734 287.809 313.989 292.822V292.822Z" fill="#3F3D56"/>
<path d="M271.519 171.81C283.019 171.81 292.342 162.487 292.342 150.987C292.342 139.486 283.019 130.163 271.519 130.163C260.018 130.163 250.695 139.486 250.695 150.987C250.695 162.487 260.018 171.81 271.519 171.81Z" fill="#A0616A"/>
<path d="M295.082 137.657C297.979 127.094 266.403 118.037 260.267 126.543C259.413 125.333 256.26 124.599 254.813 124.97C253.367 125.341 252.15 126.268 250.963 127.166C249.33 128.42 247.639 129.718 246.637 131.521C245.628 133.317 245.472 135.765 246.83 137.323C247.906 138.562 249.796 145.147 251.414 145.473C252.541 145.703 253.491 145.889 254.307 146.022C255.034 144.961 256.889 143.628 256.755 142.345C257.853 143.072 257.452 144.351 257.231 145.659C256.493 150.012 239.884 183.714 249.397 173.783C250.339 174.339 251.504 174.859 252.847 175.333C255.125 171.898 256.995 167.847 258.226 163.611L258.235 163.689C258.659 167.371 261.35 170.392 264.909 171.423C279.189 175.56 290.739 169.489 294.713 158.543C293.258 155.59 292.624 155.911 292.755 155.823C294.57 154.599 297.066 155.399 297.846 157.445C298.077 158.048 298.286 158.563 298.467 158.951C300.537 151.546 302.999 152.615 295.082 137.657H295.082Z" fill="#2F2E41"/>
<path d="M285.231 129.994L283.773 122.537C283.65 121.91 283.534 121.23 283.816 120.657C284.18 119.921 285.113 119.616 285.925 119.733C286.738 119.851 287.345 120.593 288.153 120.735C290.963 121.232 294.677 118.457 295.684 125.478C296.104 128.405 300.775 128.714 302.335 131.227C303.895 133.739 304.086 137.365 301.957 139.418C300.257 141.057 297.526 141.246 295.318 140.409C293.109 139.572 291.337 137.88 289.789 136.097C288.241 134.313 286.839 132.383 285.053 130.837" fill="#2F2E41"/>
<path d="M296.195 141.336C290.497 140.54 286.613 138.468 284.651 135.177C282.083 130.87 283.803 126.127 283.878 125.927L285.082 126.374C285.066 126.418 283.506 130.76 285.762 134.53C287.516 137.463 291.086 139.325 296.372 140.063L296.195 141.336V141.336Z" fill="#ED9B40"/>
<path d="M331.5 131C322.402 131 315 123.598 315 114.5C315 105.402 322.402 98 331.5 98C340.598 98 348 105.402 348 114.5C348 123.598 340.598 131 331.5 131ZM331.5 104.6C326.041 104.6 321.6 109.041 321.6 114.5C321.6 119.959 326.041 124.4 331.5 124.4C336.959 124.4 341.4 119.959 341.4 114.5C341.4 109.041 336.959 104.6 331.5 104.6V104.6Z" fill="#ED9B40"/>
<path d="M356.713 142C355.907 142 355.1 141.707 354.466 141.112L339.04 126.678C337.714 125.439 337.647 123.362 338.889 122.04C340.128 120.713 342.208 120.648 343.534 121.89L358.96 136.324C360.286 137.563 360.353 139.639 359.111 140.962C358.464 141.652 357.589 142 356.713 142V142Z" fill="#ED9B40"/>
</svg>
